<?xml version="1.0" encoding="UTF-8"?>
<!DOCTYPE svg PUBLIC "-//W3C//DTD SVG 1.0//EN" "http://www.w3.org/TR/2001/REC-SVG-20010904/DTD/svg10.dtd">
<!-- Creator: CorelDRAW 2021 (64-Bit) -->
<?xml version="1.0" standalone="no"?>
<!DOCTYPE svg PUBLIC "-//W3C//DTD SVG 20010904//EN"
 "http://www.w3.org/TR/2001/REC-SVG-20010904/DTD/svg10.dtd">
<svg xmlns="http://www.w3.org/2000/svg" width="100px" height="100px" version="1.0" shape-rendering="geometricPrecision" text-rendering="geometricPrecision" image-rendering="optimizeQuality" fill-rule="evenodd" clip-rule="evenodd"
    viewBox="0 0 100 100">
    <g id="Layer_x0020_1">
        <metadata id="CorelCorpID_0Corel-Layer" />
        <path fill="#4A85B4" fill-rule="nonzero" d="M79.91 20.09l0 -15.95c0,-2.2 -1.79,-3.99 -3.99,-3.99l-71.78 0c-2.2,0 -3.99,1.79 -3.99,3.99l0 91.72c0,2.2 1.79,3.99 3.99,3.99l71.78 0c2.2,0 3.99,-1.79 3.99,-3.99l0 -15.95 -39.88 0 0 -19.94 39.88 0 0 -19.94 -39.88 0 0 -19.94 39.88 0z" />
        <path fill="#FAAF40" fill-rule="nonzero" d="M79.91 59.97l-39.88 0 0 -19.94 39.88 0 0 19.94zm15.95 -39.88l-71.78 0c-2.2,0 -3.99,1.79 -3.99,3.99l0 51.84c0,2.2 1.79,3.99 3.99,3.99l71.78 0c2.2,0 3.99,-1.79 3.99,-3.99l0 -51.84c0,-2.2 -1.79,-3.99 -3.99,-3.99z" />
    </g>
</svg>