<?xml version="1.0" encoding="UTF-8"?>
<!DOCTYPE svg PUBLIC "-//W3C//DTD SVG 1.0//EN" "http://www.w3.org/TR/2001/REC-SVG-20010904/DTD/svg10.dtd">
<!-- Creator: CorelDRAW 2021 (64-Bit) -->
<svg xmlns="http://www.w3.org/2000/svg" xml:space="preserve" width="3.33333in" height="2.29166in" version="1.0" style="shape-rendering:geometricPrecision; text-rendering:geometricPrecision; image-rendering:optimizeQuality; fill-rule:evenodd; clip-rule:evenodd"
viewBox="0 0 3333.33 2291.66"
 xmlns:xlink="http://www.w3.org/1999/xlink"
 xmlns:xodm="http://www.corel.com/coreldraw/odm/2003">
 <defs>
  <style type="text/css">
   <![CDATA[
    .str0 {stroke:#00CCFF;stroke-width:111.11;stroke-linecap:round;stroke-linejoin:round;stroke-miterlimit:2.61313}
    .str1 {stroke:#00CCFF;stroke-width:3;stroke-linecap:round;stroke-linejoin:round;stroke-miterlimit:2.61313}
    .fil0 {fill:none}
    .fil1 {fill:#00CCFF;fill-rule:nonzero}
   ]]>
  </style>
 </defs>
 <g id="Layer_x0020_1">
  <metadata id="CorelCorpID_0Corel-Layer"/>
  <g id="_2495277882544">
   <path class="fil0 str0" d="M1723.06 1311.88l298.89 -298.9m-354.55 278.75c48,0 86.92,38.91 86.92,86.92 0,48 -38.92,86.92 -86.92,86.92 -48,0 -86.92,-38.92 -86.92,-86.92 0,-48 38.91,-86.92 86.92,-86.92zm-1167.68 -475.14c60.34,-230.03 248.98,-397.86 472.34,-397.86 36.82,0 72.7,4.57 107.22,13.21m-481.1 1485.76c-0.49,0 -0.99,0 -1.48,0 -272.02,0 -492.54,-248.91 -492.54,-555.94 0,-269.57 169.98,-494.33 395.56,-545.17m579.56 -384.65c131.51,-206.07 345.93,-340.24 588.12,-340.24 242.19,0 456.61,134.17 588.12,340.24m482.58 1485.76l-2141.41 0m2238.48 -1100.76c224.79,51.53 393.98,275.87 393.98,544.81 0,307.04 -220.52,555.94 -492.54,555.94 -0.49,0 -0.99,-0 -1.48,-0m-479.61 -1485.76c34.52,-8.65 70.4,-13.21 107.22,-13.21 223.48,0 412.2,168 472.44,398.22"/>
   <path class="fil1 str1" d="M657.92 2148.44l38.8 9.88c-2.6,9.18 -6.7,16.86 -12.33,23 -5.6,6.17 -12.54,10.81 -20.87,13.93 -8.3,3.13 -18.87,4.7 -31.7,4.7 -15.6,0 -28.3,-1.91 -38.2,-5.71 -9.87,-3.83 -18.37,-10.56 -25.54,-20.15 -7.17,-9.6 -10.77,-21.93 -10.77,-36.9 0,-19.99 6.3,-35.35 18.9,-46.11 12.63,-10.72 30.46,-16.1 53.53,-16.1 18.04,0 32.24,3.07 42.57,9.23 10.3,6.17 18,15.62 23,28.4l-39 7.29c-1.37,-3.66 -2.8,-6.33 -4.3,-8.02 -2.5,-2.84 -5.53,-5.04 -9.1,-6.56 -3.6,-1.55 -7.6,-2.31 -12.04,-2.31 -10.07,0 -17.76,3.41 -23.1,10.19 -4.03,5.04 -6.07,12.98 -6.07,23.76 0,13.4 2.4,22.54 7.23,27.53 4.83,4.95 11.6,7.43 20.33,7.43 8.46,0 14.87,-2 19.2,-6.02 4.33,-4 7.47,-9.82 9.43,-17.45zm60.17 -71.44l44.2 0 0 91.2 69.2 0 0 29.72 -113.4 0 0 -120.93zm124.37 60.55c0,-19.73 6.5,-35.1 19.53,-46.08 13.04,-11.01 31.17,-16.5 54.44,-16.5 23.83,0 42.2,5.41 55.1,16.19 12.9,10.81 19.33,25.95 19.33,45.4 0,14.13 -2.8,25.7 -8.43,34.74 -5.63,9.04 -13.8,16.07 -24.43,21.11 -10.67,5.04 -23.93,7.54 -39.83,7.54 -16.13,0 -29.5,-2.17 -40.1,-6.5 -10.57,-4.36 -19.17,-11.23 -25.73,-20.63 -6.57,-9.37 -9.87,-21.14 -9.87,-35.27zm44.2 0.08c0,12.19 2.7,20.97 8.07,26.29 5.4,5.32 12.73,7.99 22,7.99 9.5,0 16.9,-2.61 22.1,-7.82 5.23,-5.24 7.83,-14.58 7.83,-28.12 0,-11.37 -2.73,-19.67 -8.17,-24.91 -5.47,-5.26 -12.83,-7.88 -22.17,-7.88 -8.93,0 -16.13,2.67 -21.53,7.99 -5.43,5.32 -8.13,14.16 -8.13,26.46zm221.2 -60.63l44.2 0 0 72.03c0,7.12 -1.33,13.87 -3.97,20.21 -2.63,6.36 -6.76,11.91 -12.4,16.67 -5.63,4.76 -11.53,8.08 -17.7,10.02 -8.6,2.67 -18.93,4.02 -30.97,4.02 -6.96,0 -14.57,-0.42 -22.8,-1.24 -8.24,-0.82 -15.13,-2.45 -20.67,-4.9 -5.53,-2.45 -10.6,-5.91 -15.17,-10.41 -4.6,-4.51 -7.73,-9.15 -9.43,-13.94 -2.73,-7.68 -4.1,-14.5 -4.1,-20.43l0 -72.03 44.2 0 0 73.75c0,6.59 2.17,11.74 6.46,15.43 4.33,3.72 10.33,5.57 18,5.57 7.57,0 13.54,-1.83 17.87,-5.49 4.3,-3.63 6.47,-8.81 6.47,-15.51l0 -73.75zm74 0l65.77 0c12.93,0 23.43,1.49 31.4,4.45 7.97,2.98 14.57,7.23 19.8,12.78 5.2,5.57 8.97,12.02 11.3,19.4 2.37,7.37 3.54,15.17 3.54,23.42 0,12.92 -1.74,22.94 -5.24,30.06 -3.46,7.12 -8.3,13.09 -14.5,17.9 -6.2,4.81 -12.83,8.02 -19.93,9.63 -9.7,2.2 -18.5,3.3 -26.37,3.3l-65.77 0 0 -120.93zm44.2 27.36l0 66.04 10.87 0c9.26,0 15.87,-0.87 19.8,-2.59 3.9,-1.75 6.97,-4.76 9.2,-9.07 2.23,-4.33 3.33,-11.31 3.33,-21 0,-12.81 -2.47,-21.56 -7.43,-26.29 -4.97,-4.73 -13.2,-7.09 -24.7,-7.09l-11.06 0zm178.07 -27.36l65.77 0c12.93,0 23.43,1.49 31.4,4.45 7.96,2.98 14.57,7.23 19.8,12.78 5.2,5.57 8.97,12.02 11.3,19.4 2.37,7.37 3.54,15.17 3.54,23.42 0,12.92 -1.73,22.94 -5.23,30.06 -3.47,7.12 -8.3,13.09 -14.5,17.9 -6.2,4.81 -12.83,8.02 -19.93,9.63 -9.7,2.2 -18.5,3.3 -26.37,3.3l-65.77 0 0 -120.93zm44.2 27.36l0 66.04 10.87 0c9.27,0 15.87,-0.87 19.8,-2.59 3.9,-1.75 6.96,-4.76 9.2,-9.07 2.24,-4.33 3.33,-11.31 3.33,-21 0,-12.81 -2.46,-21.56 -7.43,-26.29 -4.97,-4.73 -13.2,-7.09 -24.7,-7.09l-11.07 0zm190.27 73.64l-50.13 0 -7.2 19.93 -45.17 0 53.91 -120.93 48.43 0 53.67 120.93 -46.33 0 -7.17 -19.93zm-9.37 -26.18l-15.63 -43.46 -15.7 43.46 31.33 0zm69.24 6.11l42 -2.22c0.9,5.74 2.77,10.13 5.57,13.12 4.57,4.87 11.07,7.32 19.53,7.32 6.3,0 11.17,-1.24 14.57,-3.74 3.43,-2.5 5.13,-5.41 5.13,-8.7 0,-3.13 -1.6,-5.94 -4.83,-8.42 -3.23,-2.48 -10.76,-4.78 -22.6,-7.01 -19.4,-3.66 -33.2,-8.56 -41.47,-14.67 -8.33,-6.08 -12.5,-13.85 -12.5,-23.31 0,-6.19 2.13,-12.05 6.4,-17.57 4.27,-5.54 10.67,-9.88 19.23,-13.03 8.57,-3.15 20.3,-4.73 35.2,-4.73 18.3,0 32.24,2.87 41.83,8.64 9.6,5.74 15.3,14.89 17.13,27.44l-41.6 2.08c-1.1,-5.49 -3.44,-9.49 -6.97,-11.96 -3.57,-2.5 -8.47,-3.74 -14.7,-3.74 -5.13,0 -9.04,0.93 -11.63,2.76 -2.6,1.83 -3.9,4.08 -3.9,6.73 0,1.91 1.06,3.63 3.17,5.18 2.03,1.61 6.97,3.07 14.77,4.45 19.33,3.52 33.17,7.09 41.5,10.7 8.37,3.6 14.47,8.05 18.27,13.4 3.8,5.32 5.7,11.29 5.7,17.9 0,7.74 -2.54,14.89 -7.6,21.45 -5.1,6.53 -12.17,11.51 -21.3,14.89 -9.1,3.38 -20.57,5.07 -34.43,5.07 -24.33,0 -41.2,-3.97 -50.57,-11.88 -9.37,-7.91 -14.67,-17.96 -15.9,-30.15zm152.24 -80.93l44.2 0 0 42.22 48.4 0 0 -42.22 44.4 0 0 120.93 -44.4 0 0 -48.98 -48.4 0 0 48.98 -44.2 0 0 -120.93zm166.6 0l82.9 0c13.8,0 24.4,2.9 31.8,8.67 7.4,5.77 11.1,12.92 11.1,21.45 0,7.15 -2.64,13.28 -7.94,18.38 -3.5,3.43 -8.67,6.11 -15.43,8.11 10.3,2.08 17.83,5.66 22.7,10.75 4.83,5.09 7.27,11.48 7.27,19.17 0,6.28 -1.73,11.91 -5.17,16.92 -3.46,5.01 -8.2,8.95 -14.17,11.88 -3.73,1.8 -9.33,3.13 -16.83,3.94 -9.96,1.1 -16.57,1.66 -19.83,1.66l-76.4 0 0 -120.93zm44.6 47.46l19.3 0c6.9,0 11.74,-1.01 14.44,-3.01 2.7,-2.03 4.07,-4.93 4.07,-8.72 0,-3.52 -1.37,-6.28 -4.07,-8.25 -2.7,-2 -7.43,-2.98 -14.14,-2.98l-19.6 0 0 22.97zm0 47.46l22.57 0c7.63,0 13,-1.15 16.13,-3.43 3.13,-2.28 4.7,-5.32 4.7,-9.18 0,-3.57 -1.53,-6.44 -4.63,-8.61 -3.1,-2.17 -8.54,-3.26 -16.3,-3.26l-22.47 0 0 24.49zm105.17 -34.37c0,-19.73 6.5,-35.1 19.53,-46.08 13.04,-11.01 31.17,-16.5 54.44,-16.5 23.83,0 42.2,5.41 55.1,16.19 12.9,10.81 19.33,25.95 19.33,45.4 0,14.13 -2.8,25.7 -8.44,34.74 -5.63,9.04 -13.8,16.07 -24.43,21.11 -10.67,5.04 -23.93,7.54 -39.83,7.54 -16.13,0 -29.5,-2.17 -40.1,-6.5 -10.57,-4.36 -19.17,-11.23 -25.74,-20.63 -6.57,-9.37 -9.87,-21.14 -9.87,-35.27zm44.2 0.08c0,12.19 2.7,20.97 8.07,26.29 5.4,5.32 12.73,7.99 22,7.99 9.5,0 16.9,-2.61 22.1,-7.82 5.23,-5.24 7.83,-14.58 7.83,-28.12 0,-11.37 -2.74,-19.67 -8.17,-24.91 -5.47,-5.26 -12.83,-7.88 -22.17,-7.88 -8.93,0 -16.13,2.67 -21.54,7.99 -5.43,5.32 -8.13,14.16 -8.13,26.46zm209.27 40.37l-50.13 0 -7.2 19.93 -45.17 0 53.9 -120.93 48.43 0 53.67 120.93 -46.33 0 -7.17 -19.93zm-9.37 -26.18l-15.63 -43.46 -15.7 43.46 31.33 0zm77.44 46.11l0 -120.93 73.73 0c13.67,0 24.14,0.98 31.33,2.98 7.24,1.97 13.07,5.66 17.5,11 4.43,5.38 6.63,11.93 6.63,19.65 0,6.7 -1.7,12.5 -5.1,17.37 -3.37,4.9 -8.04,8.84 -14,11.88 -3.77,1.91 -8.97,3.52 -15.54,4.78 5.27,1.49 9.1,2.96 11.5,4.45 1.6,0.98 3.97,3.13 7.07,6.36 3.07,3.24 5.13,5.74 6.17,7.52l21.5 34.93 -50 0 -23.64 -36.87c-3,-4.79 -5.67,-7.88 -8,-9.32 -3.2,-1.86 -6.83,-2.79 -10.87,-2.79l-3.9 0 0 48.98 -44.4 0zm44.4 -71.78l18.7 0c2,0 5.93,-0.56 11.73,-1.66 2.93,-0.48 5.33,-1.74 7.17,-3.8 1.87,-2.06 2.8,-4.39 2.8,-7.04 0,-3.91 -1.46,-6.92 -4.4,-9 -2.93,-2.11 -8.43,-3.15 -16.54,-3.15l-19.47 0 0 24.66zm111.17 -49.15l65.77 0c12.93,0 23.43,1.49 31.4,4.45 7.96,2.98 14.57,7.23 19.8,12.78 5.2,5.57 8.97,12.02 11.3,19.4 2.37,7.37 3.54,15.17 3.54,23.42 0,12.92 -1.74,22.94 -5.24,30.06 -3.46,7.12 -8.3,13.09 -14.5,17.9 -6.2,4.81 -12.83,8.02 -19.93,9.63 -9.7,2.2 -18.5,3.3 -26.37,3.3l-65.77 0 0 -120.93zm44.2 27.36l0 66.04 10.87 0c9.27,0 15.87,-0.87 19.8,-2.59 3.9,-1.75 6.97,-4.76 9.2,-9.07 2.23,-4.33 3.33,-11.31 3.33,-21 0,-12.81 -2.47,-21.56 -7.43,-26.29 -4.97,-4.73 -13.2,-7.09 -24.7,-7.09l-11.07 0z"/>
  </g>
 </g>
</svg>
